<svg width="64" height="64" viewBox="0 0 64 64" fill="none" xmlns="http://www.w3.org/2000/svg">
<path d="M32 25L48 16L39 32L32 32L32 25Z" fill="#989A9C"/>
<path d="M25 32L16 16L32 32L25 32Z" fill="#989A9C"/>
<path d="M32 39L48 48L32 32L32 39Z" fill="#989A9C"/>
<path d="M32 25L16 16L32 32L32 25Z" fill="#313439"/>
<path d="M39 32L48 48L32 32L39 32Z" fill="#313439"/>
<path d="M25 32L16 48L32 39L32 32L25 32Z" fill="#313439"/>
<path fill-rule="evenodd" clip-rule="evenodd" d="M23.581 11.6746C20.9118 12.7802 18.4866 14.4007 16.4437 16.4436L13.6152 13.6152C16.0296 11.2008 18.8958 9.28569 22.0502 7.97907C25.2047 6.67245 28.5856 5.99994 32 5.99994V9.99994C29.1109 9.99994 26.2501 10.569 23.581 11.6746Z" fill="#313439"/>
<path fill-rule="evenodd" clip-rule="evenodd" d="M11.6747 23.581C10.569 26.2501 10 29.1109 10 32H6C6 28.5856 6.67251 25.2047 7.97913 22.0502C9.28576 18.8957 11.2009 16.0295 13.6152 13.6152L16.4437 16.4436C14.4008 18.4865 12.7803 20.9118 11.6747 23.581Z" fill="#989A9C"/>
<path d="M16.4434 47.5563C14.4005 45.5134 12.78 43.0882 11.6744 40.419C10.5688 37.7498 10 34.8891 10 32H6C6 35.4144 6.67222 38.7953 7.97884 41.9497C9.28546 45.1042 11.2006 47.9704 13.6149 50.3848C16.0293 52.7991 18.8958 54.7142 22.0502 56.0209C25.2047 57.3275 28.5856 58 32 58V54C29.1109 54 26.2501 53.4309 23.581 52.3253C20.9118 51.2197 18.4862 49.5992 16.4434 47.5563Z" fill="#313439"/>
<path fill-rule="evenodd" clip-rule="evenodd" d="M40.419 52.3254C43.0882 51.2198 45.5134 49.5993 47.5563 47.5564L50.3848 50.3848C47.9704 52.7991 45.1042 54.7143 41.9498 56.0209C38.7953 57.3275 35.4144 58 32 58V54C34.8891 54 37.7499 53.431 40.419 52.3254Z" fill="#989A9C"/>
<path fill-rule="evenodd" clip-rule="evenodd" d="M52.3253 40.419C53.4309 37.7499 54 34.8891 54 32H58C58 35.4144 57.3275 38.7953 56.0209 41.9498C54.7142 45.1042 52.7991 47.9705 50.3848 50.3848L47.5563 47.5564C49.5992 45.5135 51.2197 43.0882 52.3253 40.419Z" fill="#313439"/>
<path d="M32 9.99994C34.8891 9.99994 37.7499 10.569 40.419 11.6746C43.0882 12.7802 45.5135 14.4007 47.5563 16.4436C49.5992 18.4865 51.22 20.9118 52.3256 23.581C53.4312 26.2501 54 29.1109 54 32H58C58 28.5856 57.3278 25.2047 56.0212 22.0502C54.7145 18.8958 52.7991 16.0295 50.3848 13.6152C47.9705 11.2009 45.1042 9.28574 41.9498 7.97912C38.7953 6.6725 35.4144 5.99994 32 5.99994V9.99994Z" fill="#989A9C"/>
<path d="M25 25L31.9999 0L31.9999 32L25 25Z" fill="#A54E0B"/>
<path d="M39 39L64 32.0001L31.9999 32L39 39Z" fill="#A54E0B"/>
<path d="M25 39L31.9999 64L31.9999 32L0 32.0001L25 39Z" fill="#A54E0B"/>
<path d="M31.9999 0L38.9999 25L64 32.0001L31.9999 32L31.9999 0Z" fill="#F8AE05"/>
<path d="M31.9999 32L0 32.0001L25 25L31.9999 32Z" fill="#F8AE05"/>
<path d="M31.9999 64L39 39L31.9999 32L31.9999 64Z" fill="#F8AE05"/>
</svg>
