<svg width="64" height="64" viewBox="0 0 64 64" fill="none" xmlns="http://www.w3.org/2000/svg">
<path d="M30.3371 6.55425L30.6905 6.53115L30.786 6.19012L31.5 3.63993L31.5 5.99998L31.5 30.7929L18.9275 18.2204L25.7073 22.0341L26.2623 22.3462L26.434 21.7331L29.6295 10.3204L29.8335 9.59173L29.0832 9.68983C27.1309 9.94507 25.2164 10.456 23.3896 11.2127C20.8139 12.2796 18.4602 13.8153 16.4476 15.7405L16.3536 15.6464L15.5642 16.2451L20.8503 25.6427L6.61038 29.6298C6.84713 27.0938 7.46294 24.6029 8.44107 22.2415C9.72257 19.1477 11.6009 16.3366 13.9688 13.9687C16.3367 11.6008 19.1478 9.72254 22.2416 8.44104C24.8222 7.37212 27.5573 6.73591 30.3371 6.55425ZM45.7796 45.0725L33.2071 32.5L58 32.5001H60.3599L57.8098 33.2141L57.4688 33.3095L57.4457 33.6629C57.2641 36.4427 56.6278 39.1778 55.5589 41.7584C54.2774 44.8522 52.3991 47.6633 50.0312 50.0312C47.6633 52.3991 44.8522 54.2774 41.7584 55.5589C39.397 56.537 36.9062 57.1529 34.3702 57.3896L38.3573 43.1497L47.7549 48.4358L48.3535 47.6464L48.2595 47.5524C50.1846 45.5398 51.7204 43.1861 52.7873 40.6104C53.544 38.7836 54.0549 36.8691 54.3101 34.9168L54.4082 34.1665L53.6795 34.3705L42.2669 37.566L41.6538 37.7377L41.9659 38.2927L45.7796 45.0725ZM31.4999 58V60.3599L30.7859 57.8098L30.6905 57.4688L30.3371 57.4457C27.5573 57.2641 24.8222 56.6278 22.2416 55.5589C19.1478 54.2774 16.3367 52.3991 13.9688 50.0312C11.6009 47.6633 9.72257 44.8522 8.44108 41.7584C7.37216 39.1778 6.73595 36.4427 6.55428 33.6629L6.53119 33.3095L6.19016 33.2141L3.6401 32.5L31.5 32.5L31.4999 58ZM57.3896 29.6298L43.1496 25.6427L48.4358 16.2451L49.3113 14.6887L47.7549 15.5642L38.3573 20.8503L34.3702 6.61037C36.9062 6.84712 39.397 7.46295 41.7584 8.44107C44.8522 9.72257 47.6633 11.6009 50.0312 13.9688C52.3991 16.3367 54.2774 19.1478 55.5589 22.2416C56.537 24.603 57.1529 27.0938 57.3896 29.6298ZM29.0832 54.3101L29.8335 54.4082L29.6295 53.6795L26.434 42.2669L26.2623 41.6538L25.7073 41.9659L17.3113 46.6887L22.0341 38.2927L22.3462 37.7377L21.7331 37.566L10.3205 34.3705L9.59177 34.1665L9.68987 34.9168C9.94511 36.8691 10.456 38.7836 11.2127 40.6104C12.2819 43.1916 13.822 45.5499 15.7529 47.5653L15.744 47.5703L16.0895 47.9103L16.4297 48.256L16.4347 48.2471C18.4501 50.178 20.8084 51.7181 23.3896 52.7873C25.2164 53.544 27.1309 54.0549 29.0832 54.3101Z" fill="#1D1F22" stroke="#1D1F22"/>
</svg>
