<svg width="360" height="64" viewBox="0 0 360 64" fill="none" xmlns="http://www.w3.org/2000/svg">
<path d="M32 25L48 16L39 31.9999L32 32L32 25Z" fill="#989A9C"/>
<path d="M25 32L16 16L32 32L25 32Z" fill="#989A9C"/>
<path d="M32 39L48 48L32 32L32 39Z" fill="#989A9C"/>
<path d="M32 25L16 16L32 32L32 25Z" fill="#313439"/>
<path d="M39 31.9999L48 48L32 32L39 31.9999Z" fill="#313439"/>
<path d="M25 32L16 48L32 39L32 32L25 32Z" fill="#313439"/>
<path fill-rule="evenodd" clip-rule="evenodd" d="M23.581 11.6746C20.9118 12.7802 18.4866 14.4007 16.4437 16.4436L13.6152 13.6152C16.0296 11.2009 18.8958 9.28571 22.0502 7.97909C25.2047 6.67246 28.5856 5.99995 32 5.99995V9.99995C29.1109 9.99995 26.2501 10.569 23.581 11.6746Z" fill="#313439"/>
<path fill-rule="evenodd" clip-rule="evenodd" d="M11.6747 23.581C10.569 26.2501 10 29.1109 10 32H6C6 28.5856 6.67251 25.2047 7.97913 22.0502C9.28576 18.8958 11.2009 16.0295 13.6152 13.6152L16.4437 16.4436C14.4008 18.4865 12.7803 20.9118 11.6747 23.581Z" fill="#989A9C"/>
<path d="M16.4434 47.5563C14.4005 45.5134 12.78 43.0882 11.6744 40.419C10.5688 37.7499 10 34.8891 10 32H6C6 35.4144 6.67222 38.7953 7.97884 41.9498C9.28546 45.1042 11.2006 47.9704 13.6149 50.3848C16.0293 52.7991 18.8958 54.7142 22.0502 56.0209C25.2047 57.3275 28.5856 58 32 58V54C29.1109 54 26.2501 53.431 23.581 52.3253C20.9118 51.2197 18.4862 49.5992 16.4434 47.5563Z" fill="#313439"/>
<path fill-rule="evenodd" clip-rule="evenodd" d="M40.419 52.3254C43.0882 51.2198 45.5134 49.5993 47.5563 47.5564L50.3848 50.3848C47.9704 52.7991 45.1042 54.7143 41.9498 56.0209C38.7953 57.3275 35.4144 58 32 58V54C34.8891 54 37.7499 53.431 40.419 52.3254Z" fill="#989A9C"/>
<path fill-rule="evenodd" clip-rule="evenodd" d="M52.3253 40.419C53.4309 37.7499 54 34.8891 54 32H58C58 35.4144 57.3275 38.7953 56.0209 41.9498C54.7142 45.1042 52.7991 47.9705 50.3848 50.3848L47.5563 47.5564C49.5992 45.5135 51.2197 43.0882 52.3253 40.419Z" fill="#313439"/>
<path d="M32 9.99995C34.8891 9.99995 37.7499 10.569 40.419 11.6747C43.0882 12.7803 45.5135 14.4008 47.5563 16.4437C49.5992 18.4865 51.22 20.9118 52.3256 23.581C53.4312 26.2501 54 29.1109 54 32H58C58 28.5856 57.3278 25.2047 56.0212 22.0502C54.7145 18.8958 52.7991 16.0295 50.3848 13.6152C47.9705 11.2009 45.1042 9.28575 41.9498 7.97913C38.7953 6.67251 35.4144 5.99995 32 5.99995V9.99995Z" fill="#989A9C"/>
<path d="M25 25L31.9999 0L31.9999 32L25 25Z" fill="#A54E0B"/>
<path d="M39 39L64 32.0001L31.9999 32L39 39Z" fill="#A54E0B"/>
<path d="M25 39L31.9999 64L31.9999 32L0 32.0001L25 39Z" fill="#A54E0B"/>
<path d="M31.9999 0L38.9999 25L64 32.0001L31.9999 32L31.9999 0Z" fill="#F8AE05"/>
<path d="M31.9999 32L0 32.0001L25 25L31.9999 32Z" fill="#F8AE05"/>
<path d="M31.9999 64L39 39L31.9999 32L31.9999 64Z" fill="#F8AE05"/>
<path d="M249.238 33.8464V51H243.614V22.1097H249.012V26.8119H249.37C250.034 25.2821 251.075 24.0533 252.492 23.1254C253.921 22.1975 255.721 21.7335 257.89 21.7335C259.859 21.7335 261.583 22.1473 263.063 22.9749C264.542 23.79 265.689 25.0063 266.505 26.6238C267.32 28.2414 267.727 30.2414 267.727 32.6238V51H262.103V33.3009C262.103 31.2069 261.558 29.5705 260.467 28.3918C259.376 27.2006 257.878 26.605 255.972 26.605C254.668 26.605 253.508 26.8871 252.492 27.4514C251.489 28.0157 250.693 28.8433 250.103 29.9342C249.526 31.0125 249.238 32.3166 249.238 33.8464Z" fill="#C67508"/>
<path d="M292.511 39.0188V22.1097H298.154V51H292.624V45.9969H292.323C291.658 47.5392 290.593 48.8244 289.125 49.8527C287.671 50.8683 285.859 51.3762 283.69 51.3762C281.834 51.3762 280.191 50.9687 278.762 50.1536C277.345 49.326 276.229 48.1034 275.414 46.4859C274.611 44.8683 274.21 42.8683 274.21 40.4859V22.1097H279.834V39.8088C279.834 41.7774 280.379 43.3448 281.47 44.511C282.561 45.6771 283.978 46.2602 285.721 46.2602C286.774 46.2602 287.821 45.9969 288.862 45.4702C289.915 44.9436 290.787 44.1473 291.477 43.0815C292.179 42.0157 292.524 40.6614 292.511 39.0188Z" fill="#C67508"/>
<path d="M326.3 29.163L321.203 30.0658C320.989 29.4138 320.651 28.7931 320.187 28.2038C319.735 27.6144 319.121 27.1317 318.344 26.7555C317.566 26.3793 316.594 26.1912 315.428 26.1912C313.836 26.1912 312.507 26.5486 311.441 27.2633C310.375 27.9655 309.842 28.8746 309.842 29.9906C309.842 30.9561 310.199 31.7335 310.914 32.3229C311.629 32.9122 312.782 33.395 314.375 33.7712L318.964 34.8245C321.623 35.4389 323.604 36.3856 324.908 37.6646C326.212 38.9436 326.864 40.605 326.864 42.6489C326.864 44.3793 326.362 45.9216 325.359 47.2759C324.369 48.6176 322.983 49.6708 321.203 50.4357C319.435 51.2006 317.384 51.5831 315.052 51.5831C311.817 51.5831 309.177 50.8934 307.134 49.5141C305.09 48.1223 303.836 46.1473 303.372 43.5893L308.808 42.7618C309.146 44.1787 309.842 45.2508 310.895 45.9781C311.949 46.6928 313.322 47.0502 315.014 47.0502C316.858 47.0502 318.331 46.6677 319.435 45.9028C320.538 45.1254 321.09 44.1787 321.09 43.0627C321.09 42.1599 320.751 41.4013 320.074 40.7868C319.409 40.1724 318.387 39.7085 317.008 39.395L312.118 38.3229C309.422 37.7085 307.428 36.7304 306.137 35.3887C304.858 34.047 304.218 32.348 304.218 30.2915C304.218 28.5862 304.695 27.094 305.648 25.815C306.601 24.5361 307.917 23.5392 309.598 22.8245C311.278 22.0972 313.203 21.7335 315.372 21.7335C318.494 21.7335 320.952 22.4107 322.745 23.7649C324.538 25.1066 325.723 26.906 326.3 29.163Z" fill="#C67508"/>
<path d="M340.396 51.6395C338.565 51.6395 336.91 51.3009 335.43 50.6238C333.95 49.9342 332.778 48.9373 331.913 47.6332C331.06 46.3292 330.634 44.7304 330.634 42.837C330.634 41.2069 330.947 39.8652 331.574 38.8119C332.201 37.7586 333.048 36.9248 334.113 36.3103C335.179 35.6959 336.371 35.232 337.687 34.9185C339.004 34.605 340.345 34.3668 341.712 34.2038C343.443 34.0031 344.847 33.8401 345.925 33.7147C347.004 33.5768 347.787 33.3574 348.276 33.0564C348.766 32.7555 349.01 32.2665 349.01 31.5893V31.4577C349.01 29.815 348.546 28.5423 347.618 27.6395C346.703 26.7367 345.336 26.2853 343.518 26.2853C341.624 26.2853 340.132 26.7053 339.041 27.5455C337.963 28.373 337.217 29.2947 336.803 30.3103L331.518 29.1066C332.145 27.3511 333.06 25.9342 334.264 24.8558C335.48 23.7649 336.878 22.9749 338.458 22.4859C340.038 21.9843 341.7 21.7335 343.443 21.7335C344.596 21.7335 345.819 21.8715 347.11 22.1473C348.414 22.4107 349.631 22.8997 350.759 23.6144C351.9 24.3292 352.834 25.3511 353.562 26.6803C354.289 27.9969 354.653 29.7085 354.653 31.815V51H349.16V47.0502H348.935C348.571 47.7774 348.026 48.4922 347.298 49.1944C346.571 49.8966 345.637 50.4796 344.496 50.9436C343.355 51.4075 341.988 51.6395 340.396 51.6395ZM341.618 47.1254C343.173 47.1254 344.502 46.8182 345.606 46.2038C346.722 45.5893 347.568 44.7868 348.145 43.7962C348.734 42.7931 349.029 41.721 349.029 40.5799V36.8558C348.828 37.0564 348.439 37.2445 347.863 37.4201C347.298 37.5831 346.653 37.7273 345.925 37.8527C345.198 37.9655 344.49 38.0721 343.8 38.1724C343.11 38.2602 342.534 38.3354 342.07 38.3981C340.979 38.5361 339.982 38.768 339.079 39.094C338.189 39.4201 337.474 39.8903 336.935 40.5047C336.408 41.1066 336.145 41.9091 336.145 42.9122C336.145 44.3041 336.659 45.3574 337.687 46.0721C338.715 46.7743 340.026 47.1254 341.618 47.1254Z" fill="#C67508"/>
<path fill-rule="evenodd" clip-rule="evenodd" d="M72.2319 51V12.4796H77.8558V26.7931H78.1943C78.5203 26.1912 78.9906 25.4953 79.605 24.7053C80.2194 23.9154 81.0721 23.2257 82.163 22.6364C83.2539 22.0345 84.6959 21.7335 86.489 21.7335C88.8213 21.7335 90.9028 22.3229 92.7335 23.5016C94.5642 24.6803 96 26.3793 97.0407 28.5987C98.094 30.8182 98.6206 33.489 98.6206 36.6113C98.6206 39.7335 98.1003 42.4107 97.0595 44.6426C96.0188 46.8621 94.5893 48.5737 92.7711 49.7774C90.9529 50.9687 88.8777 51.5643 86.5454 51.5643C84.7899 51.5643 83.3542 51.2696 82.2382 50.6803C81.1348 50.0909 80.2696 49.4013 79.6426 48.6113C79.0156 47.8213 78.5329 47.1191 78.1943 46.5047H77.7241V51H72.2319ZM77.7429 36.5549C77.7429 38.5862 78.0376 40.3668 78.6269 41.8966C79.2163 43.4263 80.0689 44.6238 81.1849 45.489C82.3009 46.3417 83.6677 46.768 85.2852 46.768C86.9655 46.768 88.3699 46.3229 89.4984 45.4326C90.6269 44.5298 91.4796 43.3072 92.0564 41.7649C92.6457 40.2226 92.9404 38.4859 92.9404 36.5549C92.9404 34.6489 92.652 32.9373 92.0752 31.4201C91.5109 29.9028 90.6583 28.7053 89.5172 27.8276C88.3887 26.9498 86.978 26.511 85.2852 26.511C83.6551 26.511 82.2758 26.931 81.1473 27.7712C80.0313 28.6113 79.1849 29.7837 78.6081 31.2884C78.0313 32.7931 77.7429 34.5486 77.7429 36.5549Z" fill="#313439"/>
<path fill-rule="evenodd" clip-rule="evenodd" d="M112.284 51.6395C110.453 51.6395 108.798 51.3009 107.318 50.6238C105.839 49.9342 104.666 48.9373 103.801 47.6332C102.948 46.3291 102.522 44.7304 102.522 42.837C102.522 41.2069 102.836 39.8652 103.463 38.8119C104.09 37.7586 104.936 36.9248 106.002 36.3103C107.068 35.6959 108.259 35.232 109.575 34.9185C110.892 34.605 112.234 34.3668 113.601 34.2038C115.331 34.0031 116.735 33.8401 117.814 33.7147C118.892 33.5768 119.676 33.3574 120.165 33.0564C120.654 32.7555 120.898 32.2665 120.898 31.5893V31.4577C120.898 29.815 120.434 28.5423 119.506 27.6395C118.591 26.7367 117.224 26.2853 115.406 26.2853C113.513 26.2853 112.021 26.7053 110.93 27.5455C109.851 28.373 109.105 29.2947 108.691 30.3103L103.406 29.1066C104.033 27.3511 104.948 25.9342 106.152 24.8558C107.369 23.7649 108.767 22.9749 110.347 22.4859C111.927 21.9843 113.588 21.7335 115.331 21.7335C116.485 21.7335 117.707 21.8715 118.999 22.1473C120.303 22.4107 121.519 22.8997 122.648 23.6144C123.789 24.3292 124.723 25.3511 125.45 26.6803C126.177 27.9969 126.541 29.7085 126.541 31.815V51H121.049V47.0502H120.823C120.459 47.7774 119.914 48.4922 119.187 49.1944C118.459 49.8966 117.525 50.4796 116.384 50.9436C115.243 51.4075 113.876 51.6395 112.284 51.6395ZM113.506 47.1254C115.061 47.1254 116.39 46.8182 117.494 46.2038C118.61 45.5893 119.456 44.7868 120.033 43.7962C120.622 42.7931 120.917 41.721 120.917 40.5799V36.8558C120.717 37.0564 120.328 37.2445 119.751 37.4201C119.187 37.5831 118.541 37.7273 117.814 37.8527C117.086 37.9655 116.378 38.0721 115.688 38.1724C114.999 38.2602 114.422 38.3354 113.958 38.3981C112.867 38.5361 111.87 38.768 110.967 39.094C110.077 39.4201 109.362 39.8903 108.823 40.5047C108.296 41.1066 108.033 41.9091 108.033 42.9122C108.033 44.3041 108.547 45.3574 109.575 46.0721C110.604 46.7743 111.914 47.1254 113.506 47.1254Z" fill="#313439"/>
<path d="M138.596 51V33.8464C138.596 32.3166 138.884 31.0125 139.461 29.9342C140.051 28.8433 140.847 28.0157 141.85 27.4514C142.866 26.8871 144.026 26.605 145.33 26.605C147.236 26.605 148.734 27.2006 149.825 28.3918C150.916 29.5705 151.461 31.2069 151.461 33.3009V51H157.085V32.6238C157.085 30.2414 156.678 28.2414 155.863 26.6238C155.047 25.0063 153.9 23.79 152.421 22.9749C150.941 22.1473 149.217 21.7335 147.248 21.7335C145.079 21.7335 143.279 22.1975 141.85 23.1254C140.433 24.0533 139.392 25.2821 138.728 26.8119H138.37V22.1097H132.972V51H138.596Z" fill="#313439"/>
<path fill-rule="evenodd" clip-rule="evenodd" d="M194.075 51.5831C191.366 51.5831 189.003 50.9624 186.984 49.721C184.965 48.4796 183.398 46.7429 182.282 44.511C181.166 42.279 180.608 39.6708 180.608 36.6865C180.608 33.6897 181.166 31.069 182.282 28.8244C183.398 26.5799 184.965 24.837 186.984 23.5956C189.003 22.3542 191.366 21.7335 194.075 21.7335C196.783 21.7335 199.147 22.3542 201.166 23.5956C203.184 24.837 204.752 26.5799 205.868 28.8244C206.984 31.069 207.542 33.6897 207.542 36.6865C207.542 39.6708 206.984 42.279 205.868 44.511C204.752 46.7429 203.184 48.4796 201.166 49.721C199.147 50.9624 196.783 51.5831 194.075 51.5831ZM194.093 46.8621C195.849 46.8621 197.303 46.3981 198.457 45.4702C199.611 44.5423 200.463 43.3072 201.015 41.7649C201.579 40.2226 201.861 38.5235 201.861 36.6677C201.861 34.8245 201.579 33.1317 201.015 31.5893C200.463 30.0345 199.611 28.7868 198.457 27.8464C197.303 26.906 195.849 26.4357 194.093 26.4357C192.325 26.4357 190.858 26.906 189.692 27.8464C188.539 28.7868 187.68 30.0345 187.115 31.5893C186.564 33.1317 186.288 34.8245 186.288 36.6677C186.288 38.5235 186.564 40.2226 187.115 41.7649C187.68 43.3072 188.539 44.5423 189.692 45.4702C190.858 46.3981 192.325 46.8621 194.093 46.8621Z" fill="#313439"/>
<path fill-rule="evenodd" clip-rule="evenodd" d="M217.838 49.721C219.857 50.9624 222.221 51.5831 224.929 51.5831C227.638 51.5831 230.001 50.9624 232.02 49.721C234.039 48.4796 235.606 46.7429 236.722 44.511C237.838 42.279 238.396 39.6708 238.396 36.6865C238.396 33.6897 237.838 31.069 236.722 28.8244C235.606 26.5799 234.039 24.837 232.02 23.5956C230.001 22.3542 227.638 21.7335 224.929 21.7335C222.221 21.7335 219.857 22.3542 217.838 23.5956C215.819 24.837 214.252 26.5799 213.136 28.8244C212.02 31.069 211.462 33.6897 211.462 36.6865C211.462 39.6708 212.02 42.279 213.136 44.511C214.252 46.7429 215.819 48.4796 217.838 49.721ZM229.312 45.4702C228.158 46.3981 226.703 46.8621 224.948 46.8621C223.18 46.8621 221.713 46.3981 220.547 45.4702C219.393 44.5423 218.534 43.3072 217.97 41.7649C217.418 40.2226 217.142 38.5235 217.142 36.6677C217.142 34.8245 217.418 33.1317 217.97 31.5893C218.534 30.0345 219.393 28.7868 220.547 27.8464C221.713 26.906 223.18 26.4357 224.948 26.4357C226.703 26.4357 228.158 26.906 229.312 27.8464C230.465 28.7868 231.318 30.0345 231.87 31.5893C232.434 33.1317 232.716 34.8245 232.716 36.6677C232.716 38.5235 232.434 40.2226 231.87 41.7649C231.318 43.3072 230.465 44.5423 229.312 45.4702Z" fill="#313439"/>
<path d="M171.129 42.5172C171.129 43.6082 171.292 44.4295 171.618 44.9812C171.944 45.5204 172.364 45.8903 172.878 46.0909C173.405 46.279 173.976 46.373 174.59 46.373C175.041 46.373 175.436 46.3417 175.775 46.279C176.114 46.2163 176.377 46.1661 176.565 46.1285L177.581 50.7743C177.255 50.8997 176.791 51.0251 176.189 51.1505C175.587 51.2884 174.835 51.3636 173.932 51.3762C172.452 51.4013 171.073 51.1379 169.794 50.5862C168.515 50.0345 167.48 49.1818 166.69 48.0282C165.9 46.8746 165.505 45.4263 165.505 43.6834V26.6238H161.273V22.1097H165.505V15.1881H171.129V22.1097H177.054V26.6238H171.129V42.5172Z" fill="#313439"/>
</svg>
