<svg width="360" height="64" viewBox="0 0 360 64" fill="none" xmlns="http://www.w3.org/2000/svg">
<path d="M249.238 33.8464V51H243.614V22.1097H249.012V26.8119H249.37C250.034 25.2821 251.075 24.0533 252.492 23.1254C253.921 22.1975 255.721 21.7336 257.89 21.7336C259.859 21.7336 261.583 22.1473 263.063 22.9749C264.542 23.79 265.689 25.0063 266.505 26.6238C267.32 28.2414 267.727 30.2414 267.727 32.6238V51H262.103V33.3009C262.103 31.2069 261.558 29.5705 260.467 28.3919C259.376 27.2006 257.878 26.605 255.972 26.605C254.668 26.605 253.508 26.8872 252.492 27.4514C251.489 28.0157 250.693 28.8433 250.103 29.9342C249.526 31.0125 249.238 32.3166 249.238 33.8464Z" fill="#1D1F22"/>
<path d="M292.511 39.0188V22.1097H298.154V51H292.624V45.9969H292.323C291.658 47.5392 290.593 48.8245 289.125 49.8527C287.671 50.8683 285.859 51.3762 283.69 51.3762C281.834 51.3762 280.191 50.9687 278.762 50.1536C277.345 49.326 276.229 48.1035 275.414 46.4859C274.611 44.8683 274.21 42.8683 274.21 40.4859V22.1097H279.834V39.8088C279.834 41.7774 280.379 43.3448 281.47 44.511C282.561 45.6771 283.978 46.2602 285.721 46.2602C286.774 46.2602 287.821 45.9969 288.862 45.4702C289.915 44.9436 290.787 44.1473 291.477 43.0815C292.179 42.0157 292.524 40.6615 292.511 39.0188Z" fill="#1D1F22"/>
<path d="M326.3 29.163L321.203 30.0658C320.989 29.4138 320.651 28.7931 320.187 28.2038C319.735 27.6144 319.121 27.1317 318.344 26.7555C317.566 26.3793 316.594 26.1912 315.428 26.1912C313.836 26.1912 312.507 26.5486 311.441 27.2633C310.375 27.9655 309.842 28.8746 309.842 29.9906C309.842 30.9561 310.199 31.7335 310.914 32.3229C311.629 32.9122 312.782 33.395 314.375 33.7712L318.964 34.8245C321.623 35.4389 323.604 36.3856 324.908 37.6646C326.212 38.9436 326.864 40.605 326.864 42.6489C326.864 44.3793 326.362 45.9216 325.359 47.2759C324.369 48.6176 322.983 49.6709 321.203 50.4357C319.435 51.2006 317.384 51.5831 315.052 51.5831C311.817 51.5831 309.177 50.8934 307.134 49.5141C305.09 48.1223 303.836 46.1473 303.372 43.5893L308.808 42.7618C309.146 44.1787 309.842 45.2508 310.895 45.9781C311.949 46.6928 313.322 47.0502 315.014 47.0502C316.858 47.0502 318.331 46.6677 319.435 45.9028C320.538 45.1254 321.09 44.1787 321.09 43.0627C321.09 42.1599 320.751 41.4013 320.074 40.7868C319.409 40.1724 318.387 39.7085 317.008 39.395L312.118 38.3229C309.422 37.7085 307.428 36.7304 306.137 35.3887C304.858 34.047 304.218 32.348 304.218 30.2915C304.218 28.5862 304.695 27.0941 305.648 25.8151C306.601 24.5361 307.917 23.5392 309.598 22.8245C311.278 22.0972 313.203 21.7336 315.372 21.7336C318.494 21.7336 320.952 22.4107 322.745 23.7649C324.538 25.1066 325.723 26.906 326.3 29.163Z" fill="#1D1F22"/>
<path d="M340.396 51.6395C338.565 51.6395 336.91 51.301 335.43 50.6238C333.95 49.9342 332.778 48.9373 331.913 47.6332C331.06 46.3292 330.634 44.7304 330.634 42.837C330.634 41.2069 330.947 39.8652 331.574 38.8119C332.201 37.7586 333.048 36.9248 334.113 36.3104C335.179 35.6959 336.371 35.232 337.687 34.9185C339.004 34.605 340.345 34.3668 341.712 34.2038C343.443 34.0031 344.847 33.8401 345.925 33.7147C347.004 33.5768 347.787 33.3574 348.276 33.0564C348.766 32.7555 349.01 32.2665 349.01 31.5893V31.4577C349.01 29.8151 348.546 28.5423 347.618 27.6395C346.703 26.7367 345.336 26.2853 343.518 26.2853C341.624 26.2853 340.132 26.7053 339.041 27.5455C337.963 28.373 337.217 29.2947 336.803 30.3104L331.518 29.1066C332.145 27.3511 333.06 25.9342 334.264 24.8558C335.48 23.7649 336.878 22.9749 338.458 22.4859C340.038 21.9843 341.7 21.7336 343.443 21.7336C344.596 21.7336 345.819 21.8715 347.11 22.1473C348.414 22.4107 349.631 22.8997 350.759 23.6144C351.9 24.3292 352.834 25.3511 353.562 26.6803C354.289 27.9969 354.653 29.7085 354.653 31.8151V51H349.16V47.0502H348.935C348.571 47.7774 348.026 48.4922 347.298 49.1944C346.571 49.8966 345.637 50.4796 344.496 50.9436C343.355 51.4075 341.988 51.6395 340.396 51.6395ZM341.618 47.1254C343.173 47.1254 344.502 46.8182 345.606 46.2038C346.722 45.5893 347.568 44.7868 348.145 43.7962C348.734 42.7931 349.029 41.721 349.029 40.5799V36.8558C348.828 37.0564 348.439 37.2445 347.863 37.4201C347.298 37.5831 346.653 37.7273 345.925 37.8527C345.198 37.9655 344.49 38.0721 343.8 38.1724C343.11 38.2602 342.534 38.3354 342.07 38.3981C340.979 38.5361 339.982 38.768 339.079 39.0941C338.189 39.4201 337.474 39.8903 336.935 40.5047C336.408 41.1066 336.145 41.9091 336.145 42.9122C336.145 44.3041 336.659 45.3574 337.687 46.0721C338.715 46.7743 340.026 47.1254 341.618 47.1254Z" fill="#1D1F22"/>
<path fill-rule="evenodd" clip-rule="evenodd" d="M72.2319 51V12.4796H77.8558V26.7931H78.1943C78.5203 26.1912 78.9906 25.4953 79.605 24.7053C80.2194 23.9154 81.0721 23.2257 82.163 22.6364C83.2539 22.0345 84.6959 21.7335 86.489 21.7335C88.8213 21.7335 90.9028 22.3229 92.7335 23.5016C94.5642 24.6802 96 26.3793 97.0407 28.5987C98.094 30.8182 98.6206 33.489 98.6206 36.6113C98.6206 39.7335 98.1003 42.4106 97.0595 44.6426C96.0188 46.8621 94.5893 48.5737 92.7711 49.7774C90.9529 50.9686 88.8777 51.5643 86.5454 51.5643C84.7899 51.5643 83.3542 51.2696 82.2382 50.6802C81.1348 50.0909 80.2696 49.4012 79.6426 48.6113C79.0156 47.8213 78.5329 47.1191 78.1943 46.5047H77.7241V51H72.2319ZM77.7429 36.5548C77.7429 38.5862 78.0376 40.3668 78.6269 41.8965C79.2163 43.4263 80.0689 44.6238 81.1849 45.489C82.3009 46.3417 83.6677 46.768 85.2852 46.768C86.9655 46.768 88.3699 46.3229 89.4984 45.4326C90.6269 44.5298 91.4796 43.3072 92.0564 41.7649C92.6457 40.2226 92.9404 38.4859 92.9404 36.5548C92.9404 34.6489 92.652 32.9373 92.0752 31.4201C91.5109 29.9028 90.6583 28.7053 89.5172 27.8276C88.3887 26.9498 86.978 26.511 85.2852 26.511C83.6551 26.511 82.2758 26.931 81.1473 27.7712C80.0313 28.6113 79.1849 29.7837 78.6081 31.2884C78.0313 32.7931 77.7429 34.5486 77.7429 36.5548Z" fill="#1D1F22"/>
<path fill-rule="evenodd" clip-rule="evenodd" d="M112.284 51.6395C110.453 51.6395 108.798 51.3009 107.318 50.6238C105.839 49.9342 104.666 48.9373 103.801 47.6332C102.948 46.3291 102.522 44.7304 102.522 42.837C102.522 41.2069 102.836 39.8652 103.463 38.8119C104.09 37.7586 104.936 36.9248 106.002 36.3103C107.068 35.6959 108.259 35.232 109.575 34.9185C110.892 34.605 112.234 34.3668 113.601 34.2038C115.331 34.0031 116.735 33.8401 117.814 33.7147C118.892 33.5768 119.676 33.3574 120.165 33.0564C120.654 32.7555 120.898 32.2664 120.898 31.5893V31.4577C120.898 29.815 120.434 28.5423 119.506 27.6395C118.591 26.7367 117.224 26.2853 115.406 26.2853C113.513 26.2853 112.021 26.7053 110.93 27.5454C109.851 28.373 109.105 29.2947 108.691 30.3103L103.406 29.1066C104.033 27.3511 104.948 25.9342 106.152 24.8558C107.369 23.7649 108.767 22.9749 110.347 22.4859C111.927 21.9843 113.588 21.7335 115.331 21.7335C116.485 21.7335 117.707 21.8715 118.999 22.1473C120.303 22.4107 121.519 22.8997 122.648 23.6144C123.789 24.3291 124.723 25.3511 125.45 26.6802C126.177 27.9969 126.541 29.7085 126.541 31.815V51H121.049V47.0501H120.823C120.459 47.7774 119.914 48.4922 119.187 49.1944C118.459 49.8965 117.525 50.4796 116.384 50.9436C115.243 51.4075 113.876 51.6395 112.284 51.6395ZM113.506 47.1254C115.061 47.1254 116.39 46.8182 117.494 46.2038C118.61 45.5893 119.456 44.7868 120.033 43.7962C120.622 42.7931 120.917 41.721 120.917 40.5799V36.8558C120.717 37.0564 120.328 37.2445 119.751 37.4201C119.187 37.5831 118.541 37.7273 117.814 37.8527C117.086 37.9655 116.378 38.0721 115.688 38.1724C114.999 38.2602 114.422 38.3354 113.958 38.3981C112.867 38.536 111.87 38.768 110.967 39.094C110.077 39.4201 109.362 39.8903 108.823 40.5047C108.296 41.1066 108.033 41.9091 108.033 42.9122C108.033 44.3041 108.547 45.3574 109.575 46.0721C110.604 46.7743 111.914 47.1254 113.506 47.1254Z" fill="#1D1F22"/>
<path d="M138.596 51V33.8464C138.596 32.3166 138.884 31.0125 139.461 29.9342C140.051 28.8433 140.847 28.0157 141.85 27.4514C142.866 26.8871 144.026 26.605 145.33 26.605C147.236 26.605 148.734 27.2006 149.825 28.3918C150.916 29.5705 151.461 31.2069 151.461 33.3009V51H157.085V32.6238C157.085 30.2414 156.678 28.2414 155.863 26.6238C155.047 25.0063 153.9 23.79 152.421 22.9749C150.941 22.1473 149.217 21.7335 147.248 21.7335C145.079 21.7335 143.279 22.1975 141.85 23.1254C140.433 24.0533 139.392 25.2821 138.728 26.8119H138.37V22.1097H132.972V51H138.596Z" fill="#1D1F22"/>
<path fill-rule="evenodd" clip-rule="evenodd" d="M194.075 51.5831C191.366 51.5831 189.003 50.9624 186.984 49.721C184.965 48.4796 183.398 46.7429 182.282 44.511C181.166 42.279 180.608 39.6708 180.608 36.6865C180.608 33.6896 181.166 31.069 182.282 28.8244C183.398 26.5799 184.965 24.837 186.984 23.5956C189.003 22.3542 191.366 21.7335 194.075 21.7335C196.783 21.7335 199.147 22.3542 201.166 23.5956C203.184 24.837 204.752 26.5799 205.868 28.8244C206.984 31.069 207.542 33.6896 207.542 36.6865C207.542 39.6708 206.984 42.279 205.868 44.511C204.752 46.7429 203.184 48.4796 201.166 49.721C199.147 50.9624 196.783 51.5831 194.075 51.5831ZM194.093 46.8621C195.849 46.8621 197.303 46.3981 198.457 45.4702C199.611 44.5423 200.463 43.3072 201.015 41.7649C201.579 40.2226 201.861 38.5235 201.861 36.6677C201.861 34.8244 201.579 33.1317 201.015 31.5893C200.463 30.0345 199.611 28.7868 198.457 27.8464C197.303 26.9059 195.849 26.4357 194.093 26.4357C192.325 26.4357 190.858 26.9059 189.692 27.8464C188.539 28.7868 187.68 30.0345 187.115 31.5893C186.564 33.1317 186.288 34.8244 186.288 36.6677C186.288 38.5235 186.564 40.2226 187.115 41.7649C187.68 43.3072 188.539 44.5423 189.692 45.4702C190.858 46.3981 192.325 46.8621 194.093 46.8621Z" fill="#1D1F22"/>
<path fill-rule="evenodd" clip-rule="evenodd" d="M217.838 49.721C219.857 50.9624 222.221 51.5831 224.929 51.5831C227.638 51.5831 230.001 50.9624 232.02 49.721C234.039 48.4796 235.606 46.7429 236.722 44.511C237.838 42.279 238.396 39.6708 238.396 36.6865C238.396 33.6896 237.838 31.069 236.722 28.8244C235.606 26.5799 234.039 24.837 232.02 23.5956C230.001 22.3542 227.638 21.7335 224.929 21.7335C222.221 21.7335 219.857 22.3542 217.838 23.5956C215.819 24.837 214.252 26.5799 213.136 28.8244C212.02 31.069 211.462 33.6896 211.462 36.6865C211.462 39.6708 212.02 42.279 213.136 44.511C214.252 46.7429 215.819 48.4796 217.838 49.721ZM229.312 45.4702C228.158 46.3981 226.703 46.8621 224.948 46.8621C223.18 46.8621 221.713 46.3981 220.547 45.4702C219.393 44.5423 218.534 43.3072 217.97 41.7649C217.418 40.2226 217.142 38.5235 217.142 36.6677C217.142 34.8244 217.418 33.1317 217.97 31.5893C218.534 30.0345 219.393 28.7868 220.547 27.8464C221.713 26.9059 223.18 26.4357 224.948 26.4357C226.703 26.4357 228.158 26.9059 229.312 27.8464C230.465 28.7868 231.318 30.0345 231.87 31.5893C232.434 33.1317 232.716 34.8244 232.716 36.6677C232.716 38.5235 232.434 40.2226 231.87 41.7649C231.318 43.3072 230.465 44.5423 229.312 45.4702Z" fill="#1D1F22"/>
<path d="M171.129 42.5172C171.129 43.6081 171.292 44.4295 171.618 44.9812C171.944 45.5204 172.364 45.8903 172.878 46.0909C173.405 46.279 173.976 46.373 174.59 46.373C175.041 46.373 175.436 46.3417 175.775 46.279C176.114 46.2163 176.377 46.1661 176.565 46.1285L177.581 50.7743C177.255 50.8997 176.791 51.0251 176.189 51.1505C175.587 51.2884 174.835 51.3636 173.932 51.3762C172.452 51.4012 171.073 51.1379 169.794 50.5862C168.515 50.0345 167.48 49.1818 166.69 48.0282C165.9 46.8746 165.505 45.4263 165.505 43.6834V26.6238H161.273V22.1097H165.505V15.1881H171.129V22.1097H177.054V26.6238H171.129V42.5172Z" fill="#1D1F22"/>
<path d="M30.3371 6.55425L30.6905 6.53115L30.786 6.19012L31.5 3.63993L31.5 5.99998L31.5 30.7929L18.9275 18.2204L25.7073 22.0341L26.2623 22.3462L26.434 21.7331L29.6295 10.3204L29.8335 9.59173L29.0832 9.68983C27.1309 9.94507 25.2164 10.456 23.3896 11.2127C20.8139 12.2796 18.4602 13.8153 16.4476 15.7405L16.3536 15.6464L15.5642 16.2451L20.8503 25.6427L6.61038 29.6298C6.84713 27.0938 7.46294 24.6029 8.44107 22.2415C9.72257 19.1477 11.6009 16.3366 13.9688 13.9687C16.3367 11.6008 19.1478 9.72254 22.2416 8.44104C24.8222 7.37212 27.5573 6.73591 30.3371 6.55425ZM45.7796 45.0725L33.2071 32.5L58 32.5001H60.3599L57.8098 33.2141L57.4688 33.3095L57.4457 33.6629C57.2641 36.4427 56.6278 39.1778 55.5589 41.7584C54.2774 44.8522 52.3991 47.6633 50.0312 50.0312C47.6633 52.3991 44.8522 54.2774 41.7584 55.5589C39.397 56.537 36.9062 57.1529 34.3702 57.3896L38.3573 43.1497L47.7549 48.4358L48.3535 47.6464L48.2595 47.5524C50.1846 45.5398 51.7204 43.1861 52.7873 40.6104C53.544 38.7836 54.0549 36.8691 54.3101 34.9168L54.4082 34.1665L53.6795 34.3705L42.2669 37.566L41.6538 37.7377L41.9659 38.2927L45.7796 45.0725ZM31.4999 58V60.3599L30.7859 57.8098L30.6905 57.4688L30.3371 57.4457C27.5573 57.2641 24.8222 56.6278 22.2416 55.5589C19.1478 54.2774 16.3367 52.3991 13.9688 50.0312C11.6009 47.6633 9.72257 44.8522 8.44108 41.7584C7.37216 39.1778 6.73595 36.4427 6.55428 33.6629L6.53119 33.3095L6.19016 33.2141L3.6401 32.5L31.5 32.5L31.4999 58ZM57.3896 29.6298L43.1496 25.6427L48.4358 16.2451L49.3113 14.6887L47.7549 15.5642L38.3573 20.8503L34.3702 6.61037C36.9062 6.84712 39.397 7.46295 41.7584 8.44107C44.8522 9.72257 47.6633 11.6009 50.0312 13.9688C52.3991 16.3367 54.2774 19.1478 55.5589 22.2416C56.537 24.603 57.1529 27.0938 57.3896 29.6298ZM29.0832 54.3101L29.8335 54.4082L29.6295 53.6795L26.434 42.2669L26.2623 41.6538L25.7073 41.9659L17.3113 46.6887L22.0341 38.2927L22.3462 37.7377L21.7331 37.566L10.3205 34.3705L9.59177 34.1665L9.68987 34.9168C9.94511 36.8691 10.456 38.7836 11.2127 40.6104C12.2819 43.1916 13.822 45.5499 15.7529 47.5653L15.744 47.5703L16.0895 47.9103L16.4297 48.256L16.4347 48.2471C18.4501 50.178 20.8084 51.7181 23.3896 52.7873C25.2164 53.544 27.1309 54.0549 29.0832 54.3101Z" fill="#1D1F22" stroke="#1D1F22"/>
</svg>
